<?xml version="1.0" encoding="utf-8"?>
<!-- Uploaded to: SVG Repo, www.svgrepo.com, Generator: SVG Repo Mixer Tools -->
<svg width="800px" height="800px" viewBox="-133.76 0 449.686 449.686" xmlns="http://www.w3.org/2000/svg"><defs><style>.a{fill:#ffffff;}.b{fill:#bdbdbd;}.c{fill:#7a7473;}.d{fill:#211715;}.e{fill:#65a0d4;}.f{fill:#645d5c;}.g{fill:#3f88c9;}</style></defs><path class="a" d="M115.783,407.473c5.379.036,12.8.041,18.162-.014,0,.02.42,4.48.43,4.61a6.692,6.692,0,0,0,.65,2.73c.03.03.22.2.51.45a11.346,11.346,0,0,1-10.019,2.382c-3.528-.722-6.694-2.583-9.772-4.47-.109-1.291-.209-2.572-.229-3.032-.05-.909-.09-1.789-.137-2.658Z"/><path class="a" d="M77.809,413.233c.093-.558.142-1.124.176-1.5.05-.47.32-3.31.4-4.25,5.581.044,13.249.031,18.555-.011.059-.922-.2,4.036-.225,4.351-.01.17-.051.731-.11,1.4-3.047,1.867-6.183,3.7-9.674,4.41-3.549.727-7.457.059-10.081-2.439a4.764,4.764,0,0,0,.455-.393A4.072,4.072,0,0,0,77.809,413.233Z"/><path class="b" d="M105.143,214.475c-13.384-.038-26.769-.075-41.377-.108.661,11.245,1.818,41.278,1.969,50.663.284,17.633,2.107,59.423,3.028,84.062.824,22.051,1.6,36.5,2.768,58.173,2.984.317,25.507.26,30.556.137.536-13.889,1.995-47.22,2.221-52.693.639-15.5,1.292-81.279,1.931-95.882.507,13.88,1.068,83.132,1.576,97.981.18,5.244,1.651,37.346,2.036,50.594,5.048.123,27.658.18,30.644-.137.647-22.122,1.314-36.122,2.3-58.173,1.1-24.632,1.79-63.324,2.349-80.951.3-9.333,1.334-44.666,1.556-53.333l.006-.225C132.025,214.55,118.584,214.513,105.143,214.475Z"/><path class="a" d="M134.776,50.175a4.423,4.423,0,0,1,3.539-1.035,4.173,4.173,0,0,1,3,2,5.908,5.908,0,0,1,.619,2.375,17.7,17.7,0,0,1-1.805,9.38,11.228,11.228,0,0,1-2.908,3.816,3.521,3.521,0,0,1-4.35.406,26.782,26.782,0,0,1-1.156,4.156c-.986,2.636-6.391,11.607-13.273,15.168,0,2.564-.152,5.676.773,7.973,1.439,3.552,9.193,8.028,9.727,8.26,0,0-1.386,17.584-24.5,17.584S80.27,102.046,80.27,102.046c.534-.233,7.076-4.084,8.515-7.636,1-2.48.742-5.917.779-8.584a26.08,26.08,0,0,1-6.848-5.873A29.952,29.952,0,0,1,76.681,67.8l-.436.118a4.224,4.224,0,0,1-3.832-1.211,11.228,11.228,0,0,1-2.908-3.816,17.692,17.692,0,0,1-1.8-9.38,5.89,5.89,0,0,1,.618-2.375,4.175,4.175,0,0,1,3-2,4.423,4.423,0,0,1,3.539,1.035s.845-25.032,27.808-25.032C134.077,25.143,134.776,50.175,134.776,50.175Z"/><path class="c" d="M139.287,30.052a24.01,24.01,0,0,0-.983-3.21c-1.478-3.776-3.742-8.135-8.329-10.652l-5.381-4.047c-5.369-8.889-15.268-10.627-23.7-10.037-10.018.7-17.157,3.391-23.667,11.037C67.739,24.286,67.473,39.025,71.058,49.2a1.792,1.792,0,0,1,.264-.055,4.423,4.423,0,0,1,3.539,1.035l4.7-5.111c1.964-2.793,7.534-9.716,11.767-10.562,3.027-.606,6.253.05,9.393-.076,5.692-.229,10.4-2.925,15.447-4.891.672-.262,1.35-.511,2.038-.739a2.759,2.759,0,0,1,1.2-.2,2.122,2.122,0,0,1,1.207.7c5.862,5.72,11.367,13.941,12.36,22.517.906-.825,1.809-1.64,1.809-1.64a4.423,4.423,0,0,1,3.539-1.035,3.263,3.263,0,0,1,.393.082A38.19,38.19,0,0,0,139.287,30.052Z"/><path class="d" d="M116.439,87.242c-.02,2.727-.079,5.636,1.051,8.177a12.294,12.294,0,0,0,3.309,4.033,40.937,40.937,0,0,0,4.608,3.433,20,20,0,0,0,2.527,1.512,2.061,2.061,0,0,0,2.737-.717,2.017,2.017,0,0,0-.718-2.737,18.6,18.6,0,0,1-2.266-1.344q-1-.639-1.961-1.327c-.351-.251-.7-.507-1.043-.772.293.227-.206-.166-.263-.212q-.257-.207-.509-.42a19.307,19.307,0,0,1-1.836-1.748c-.113-.124-.219-.255-.332-.38q-.213-.265.01.026c-.063-.083-.124-.167-.184-.252a6.154,6.154,0,0,1-.517-.87c-.188-.4.13.464-.071-.217-.094-.317-.188-.631-.258-.954a10.4,10.4,0,0,1-.213-1.523c-.093-1.234-.08-2.472-.071-3.708.019-2.575-3.981-2.577-4,0Z"/><path class="d" d="M87.563,86.952a22.077,22.077,0,0,1-.441,6.149c-.024.08-.267.785-.123.44a4.47,4.47,0,0,1-.209.422,8.9,8.9,0,0,1-.54.846c-.135.182-.139.187-.01.016-.057.071-.115.14-.174.209-.122.138-.241.279-.366.415-.278.3-.57.595-.869.878-.518.488-1.317,1.16-1.706,1.46-.331.256-1.121.822-1.652,1.18a16.144,16.144,0,0,1-2.213,1.352,2.015,2.015,0,0,0-.717,2.736,2.047,2.047,0,0,0,2.736.718,17.21,17.21,0,0,0,2.481-1.535,30.669,30.669,0,0,0,4.176-3.349,11.066,11.066,0,0,0,3.01-4.61,24.758,24.758,0,0,0,.617-7.327c-.014-2.574-4.014-2.579-4,0Z"/><path class="d" d="M131.024,65.547a16.139,16.139,0,0,1-.968,4.406c-.07.208-.142.416-.213.624-.012.037-.221.584-.079.232s-.086.184-.113.241c-.066.137-.132.274-.2.41a36.166,36.166,0,0,1-3.122,5.018c-2.756,3.787-6.459,7.754-11.091,9.1-2.468.716-1.418,4.577,1.063,3.857,5.617-1.629,9.953-6.146,13.325-10.721,2.853-3.871,5.2-8.249,5.4-13.164.106-2.574-3.894-2.569-4,0Z"/><path class="d" d="M73.636,62c.7,5.641,2.119,11.192,5.2,16.039,3.612,5.676,9.381,10.758,16.207,11.833a2.064,2.064,0,0,0,2.46-1.4,2.016,2.016,0,0,0-1.4-2.461c-5.981-.941-10.935-5.307-14.035-10.344A34.684,34.684,0,0,1,77.636,62a2.065,2.065,0,0,0-2-2,2.012,2.012,0,0,0-2,2Z"/><path class="d" d="M136.19,51.589a2.331,2.331,0,0,1,3.4.556A5.579,5.579,0,0,1,140,54.633a14.848,14.848,0,0,1-.213,2.985,15.743,15.743,0,0,1-2.107,5.569c-.741,1.178-1.935,2.756-3.32,2.387-2.49-.664-3.552,3.193-1.063,3.857,3.223.859,5.747-1.216,7.5-3.723a18.883,18.883,0,0,0,3.063-8.512c.345-2.827.342-6.415-1.948-8.471a6.475,6.475,0,0,0-8.549.036,2.015,2.015,0,0,0,0,2.828,2.043,2.043,0,0,0,2.828,0Z"/><path class="d" d="M76.275,48.761a6.48,6.48,0,0,0-8.55-.036c-2.35,2.11-2.29,5.814-1.917,8.7a18.6,18.6,0,0,0,3.209,8.529c1.815,2.489,4.522,4.608,7.76,3.894,2.512-.554,1.449-4.411-1.064-3.857-1.408.31-2.911-1.53-3.588-2.55a15.48,15.48,0,0,1-2.241-5.664,14.758,14.758,0,0,1-.246-2.938,5.877,5.877,0,0,1,.408-2.693,2.331,2.331,0,0,1,3.4-.556,2.055,2.055,0,0,0,2.829,0,2.016,2.016,0,0,0,0-2.828Z"/><path class="d" d="M72.816,48.168c-3.593-10.877-2.1-23.506,5.038-32.654A27.907,27.907,0,0,1,91.411,5.767,40.465,40.465,0,0,1,107.728,4.21c6.175.694,11.819,3.558,15.139,8.942,1.348,2.188,4.809.181,3.453-2.019C119.3-.259,104.793-1.521,92.838,1.237c-13.1,3.023-22.7,14.469-25.164,27.472a41.259,41.259,0,0,0,1.285,20.523c.8,2.432,4.667,1.39,3.857-1.064Z"/><path class="d" d="M81.285,46.073a38.586,38.586,0,0,1,6.959-7.663,8.482,8.482,0,0,1,4.068-2.061c2.7-.382,5.46.162,8.17.083,5.115-.148,9.693-2.24,14.322-4.2,1.093-.462,2.194-.906,3.314-1.3a3.424,3.424,0,0,1,1.015-.287c.4.13,1.03,1.034,1.305,1.323a45.955,45.955,0,0,1,4.5,5.471c3.036,4.361,5.474,9.363,6.065,14.7a2.06,2.06,0,0,0,2,2,2.014,2.014,0,0,0,2-2,35.688,35.688,0,0,0-5.675-15.321,51.612,51.612,0,0,0-4.836-6.349c-1.7-1.915-3.552-4.427-6.434-3.724a54.059,54.059,0,0,0-7.778,3.1,32.037,32.037,0,0,1-7.895,2.434c-5.118.706-10.413-1.221-15.035,1.841-3.806,2.521-6.9,6.23-9.519,9.927-1.49,2.1,1.977,4.106,3.454,2.019Z"/><path class="d" d="M128.966,17.917c4.5,2.55,7.1,7.464,8.317,12.354a35.115,35.115,0,0,1-.227,17.509c-.686,2.486,3.172,3.546,3.857,1.064a39.207,39.207,0,0,0,.139-19.983c-1.51-5.752-4.785-11.4-10.067-14.4-2.243-1.271-4.261,2.183-2.019,3.454Z"/><path class="a" d="M62.456,187.369c-.211-7.735-.519-16.524-.909-25.438l-.278.362-.918,1.2a116.459,116.459,0,0,1-11.067,12.256,16.905,16.905,0,0,1-12.913,4c-6.822-1.1-9.805-7.593-12.59-13.925-4.006-9.106-6.853-18.9-9.7-28,5.706-1.242,14.791-5.4,20.5-8.408,2.254,5.543,4.241,10.482,6.515,15.806,4.093-10.606,5.145-16.407,9.161-26.893.746-1.946,1.3-3.7,2.727-5.222a14.744,14.744,0,0,1,4.885-3.13c5.48-2.477,18.609-7.5,25.253-10.48a23.314,23.314,0,0,1,5.323-7.848,44.342,44.342,0,0,0,12.8,8.921c.265.12.56.267.645.545a1.029,1.029,0,0,1-.147.723h4.39a1.024,1.024,0,0,1-.148-.723c.086-.278.381-.425.646-.545a44.325,44.325,0,0,0,12.8-8.921,22.93,22.93,0,0,1,5.1,7.336c5.827,2.332,20.685,8.047,26.284,10.751,1.8.869,3.769,1.649,5.132,3.11a16.994,16.994,0,0,1,3.053,5.631c4.046,10.564,4.873,16.167,8.919,26.731H149.4c-.77,18.271-1.521,39.772-1.814,54.084-.148,9.185.3,12.741.222,15.3-30.222-.068-55.111-.155-85.333-.222-.111-2.277.032-12.332.222-16.258C62.643,194.871,62.561,191.253,62.456,187.369Z"/><path class="e" d="M106.034,199.059a115.132,115.132,0,0,0,8.145-10.031c.746-1.086,1.383-1.673,1.453-2.486a18.986,18.986,0,0,0-.185-3.176c-1.551-17.437-3.852-44.694-6.816-70.134a11.119,11.119,0,0,1,.689-3.035c.427-1.31,1.319-4.317.849-3.248-.477-.577-.948-1.15-1.391-1.693-.776-.949-1.466-1.806-1.951-2.434l-5.79.007c-.484.628-1.172,1.482-1.945,2.427-.31.379-.633.773-.963,1.173.252,1.35.737,2.786,1.053,4.142.058.269.125.528.192.8a7.378,7.378,0,0,1,.288,1.767c-2.152,23.425-4.919,52.378-6.853,72.414a4.517,4.517,0,0,0,.177,2.272,10.607,10.607,0,0,0,1.174,1.792,81.945,81.945,0,0,0,8.055,9.535,3.272,3.272,0,0,0,1.8.937,2.76,2.76,0,0,0,1.975-.979Z"/><path class="d" d="M113.385,407.469c.087,1.9.2,3.8.36,5.69a2.139,2.139,0,0,0,.585,1.414,2,2,0,0,0,2.829,0,1.965,1.965,0,0,0,.586-1.414c-.162-1.895-.273-3.789-.36-5.69a2,2,0,0,0-4,0Z"/><path class="d" d="M131.945,407.459c0,.63.113,1.279.172,1.9q.1,1.08.206,2.16c.069.718.14,1.436.251,2.15a6.71,6.71,0,0,0,.517,1.75,3.594,3.594,0,0,0,1.029,1.239,2,2,0,1,0,2.829-2.828c-.156-.135-.308-.295-.475-.417.02.014.359.518.147.156-.165-.283.152.48.056.122-.056-.211-.121-.418-.165-.632-.023-.113-.044-.226-.063-.34-.012-.075-.024-.151-.035-.228l.04.306c-.035-.489-.1-.981-.149-1.47q-.1-1.05-.2-2.1c-.055-.583-.16-1.186-.16-1.772a2,2,0,0,0-4,0Z"/><path class="d" d="M98.605,413.219c.169-1.911.254-3.833.34-5.75a2.016,2.016,0,0,0-2-2,2.043,2.043,0,0,0-2,2c-.086,1.917-.171,3.839-.34,5.75a2,2,0,0,0,.585,1.414,2,2,0,0,0,2.829,0,2.256,2.256,0,0,0,.586-1.414Z"/><path class="d" d="M76.385,407.459c0,.594-.107,1.206-.162,1.8q-.094,1.01-.193,2.019c-.019.19-.038.379-.056.569-.014.163-.029.325-.046.488-.01.1-.023.2-.034.3-.042.385.075-.475.015-.111a9.933,9.933,0,0,1-.276,1.218c-.094.32.236-.438.065-.15-.148.248-.163.048.175-.185-.152.105-.29.253-.433.37a2,2,0,0,0,1.415,3.414,2.287,2.287,0,0,0,1.414-.586,4.283,4.283,0,0,0,1.445-2.7c.147-.812.217-1.634.3-2.455.068-.683.132-1.367.2-2.051.06-.638.176-1.3.176-1.94a2,2,0,0,0-4,0Z"/><path class="f" d="M129.619,441.705a19.269,19.269,0,0,0,3.576,2.79,23.45,23.45,0,0,0,14.6,3A13.818,13.818,0,0,0,154,445.307a7.713,7.713,0,0,0,3.385-5.47c.265-3.138-1.639-6.11-3.87-8.331-5.726-5.7-11.8-11.293-16.854-17.531-2.536,3.49-7.078,4.49-11.148,3.656-3.742-.766-7.077-2.813-10.331-4.814-3.113-1.914-3.583,7.073-3.656,9.022-.117,3.086-.623,7.161,1.825,9.443a24.694,24.694,0,0,0,7.828,4.258C124.938,436.688,126.877,439.108,129.619,441.705Z"/><path class="f" d="M82.829,441.705a19.269,19.269,0,0,1-3.576,2.79,23.452,23.452,0,0,1-14.6,3,13.814,13.814,0,0,1-6.205-2.185,7.717,7.717,0,0,1-3.386-5.47c-.265-3.138,1.64-6.11,3.871-8.331,5.726-5.7,11.8-11.293,16.854-17.531,2.536,3.49,7.077,4.49,11.147,3.656,3.743-.766,7.078-2.813,10.332-4.814,3.113-1.914,3.582,7.073,3.656,9.022.116,3.086.623,7.161-1.825,9.443a24.705,24.705,0,0,1-7.828,4.258C87.509,436.688,85.571,439.108,82.829,441.705Z"/><path class="d" d="M128.205,443.119a23.81,23.81,0,0,0,12.583,6.191c4.56.732,9.878.523,13.88-2.044a9.525,9.525,0,0,0,4.129-11.39c-1.656-4.5-5.785-7.675-9.108-10.938a153.769,153.769,0,0,1-11.611-12.377c-.9-1.106-2.447-.512-3.141.4-3.131,4.129-9.1,3.219-13.166,1.285-1.265-.6-2.485-1.292-3.688-2.01-1.08-.644-2.2-1.586-3.5-1.669a3.714,3.714,0,0,0-3.49,2.409c-1.277,2.694-1.429,5.925-1.559,8.859a24.129,24.129,0,0,0,.281,7.089,9.17,9.17,0,0,0,4.324,5.436c2.389,1.554,4.966,2.354,7.545,3.469,2.615,1.132,4.508,3.361,6.526,5.286,1.862,1.777,4.695-1.047,2.828-2.828a42.511,42.511,0,0,0-5.545-4.912c-1.925-1.284-4.172-1.764-6.237-2.751-1.72-.821-4.259-1.893-5.19-3.681-.946-1.818-.672-4.152-.577-6.121.13-2.7.077-5.419,1.105-7.929-.086.21.246-.431.3-.543-.126.245-.144.011-.013.031.176.028.036.01-.188.1s-.424.211-.674-.026a10.892,10.892,0,0,0,1.857,1.125,33.809,33.809,0,0,0,7.621,3.6c5.441,1.623,11.367.455,14.895-4.2l-3.141.405c2.705,3.317,5.644,6.428,8.664,9.458s6.348,5.858,9.139,9.092c2.211,2.561,3.436,6.152.8,8.871-2.669,2.756-7.21,3.091-10.814,2.783a20.034,20.034,0,0,1-12.007-5.3C129.157,438.531,126.322,441.354,128.205,443.119Z"/><path class="d" d="M81.414,440.291a20.1,20.1,0,0,1-10.391,5.089c-3.649.657-8.247.5-11.4-1.684a5.864,5.864,0,0,1-2.55-3.762,7.049,7.049,0,0,1,1.416-4.8,29,29,0,0,1,4.136-4.467c1.534-1.5,3.074-3,4.6-4.517a138.737,138.737,0,0,0,9.97-10.76l-3.141-.405c3.081,4.064,7.945,5.483,12.88,4.672a24.83,24.83,0,0,0,7.913-3.073c.516-.288,1.026-.586,1.533-.889a7.562,7.562,0,0,0,1.889-1.15c.258-.335.121.06-.015-.01-.5-.259.093.1-.247.007-.162-.043-.423-.239-.549-.257.138.02.288.446.095.07,1.017,1.982,1.241,4.737,1.354,7.259a22.655,22.655,0,0,1-.09,6.085c-.49,2.093-2.175,3.076-3.949,4.065-2.289,1.277-4.87,1.844-7.132,3.132-2.428,1.382-4.325,3.487-6.325,5.4-1.866,1.78.966,4.606,2.829,2.828,1.8-1.716,3.475-3.649,5.679-4.86a24.435,24.435,0,0,1,3.029-1.2,31.9,31.9,0,0,0,3.608-1.664c2.091-1.131,4.35-2.524,5.431-4.73a14.628,14.628,0,0,0,1.007-7.16c-.136-3.073-.171-6.325-1.14-9.271-.483-1.47-1.3-3.111-2.919-3.567-2.182-.614-4.355,1.48-6.107,2.459-4.446,2.484-11.542,4.817-15.32-.165-.695-.916-2.239-1.51-3.141-.4a141.4,141.4,0,0,1-10.3,11.084c-1.8,1.779-3.616,3.541-5.417,5.319a21.553,21.553,0,0,0-4.323,5.354c-2.11,4.126-1.5,8.885,2.112,11.953,3.592,3.049,8.845,3.754,13.395,3.281a24.437,24.437,0,0,0,14.4-6.433C86.125,441.355,83.292,438.53,81.414,440.291Z"/><path class="d" d="M144.7,214.808c-.244,9.483-.532,18.964-.81,28.446-.273,9.343-.57,18.685-.841,28.028-.37,12.793-.639,25.588-.971,38.381-.367,14.126-.783,28.249-1.414,42.366-.724,16.164-1.447,32.328-1.961,48.5q-.108,3.368-.206,6.735l2-2c-3.375.339-6.844.2-10.231.218q-7.454.043-14.908-.013c-1.835-.013-3.67-.025-5.5-.068l2,2c-.34-11.619-.876-23.233-1.375-34.846-.312-7.284-.665-14.567-.818-21.857-.2-9.717-.322-19.436-.45-29.155q-.229-17.488-.455-34.978c-.118-8.532-.211-17.066-.447-25.595q-.024-.882-.054-1.763c-.087-2.567-4.087-2.578-4,0,.265,7.791.333,15.59.445,23.384q.247,17.321.455,34.643c.133,10.232.259,20.464.452,30.695.128,6.825.4,13.637.693,20.456.512,11.909,1.047,23.817,1.45,35.73q.056,1.643.1,3.286a2.039,2.039,0,0,0,2,2c8.726.207,17.477.17,26.2.021,1.475-.025,2.971-.011,4.441-.158a2.054,2.054,0,0,0,2-2c.477-16.245,1.148-32.481,1.874-48.716q.974-21.715,1.562-43.438c.361-13.349.651-26.7,1.011-40.048.247-9.159.549-18.317.819-27.476q.453-15.369.883-30.739l.054-2.04c.066-2.575-3.934-2.573-4,0Z"/><path class="d" d="M100.07,115.053c2.765,0,5.53-.061,8.3-.062a2,2,0,0,0,0-4c-2.765,0-5.53.061-8.3.062a2,2,0,0,0,0,4Z"/><path class="d" d="M96.222,107.082c.375,1.766.992,3.479,1.33,5.253a18.215,18.215,0,0,1-.264,4.867q-.447,4.839-.9,9.677-.956,10.234-1.925,20.467c-1.2,12.621-2.428,25.238-3.622,37.859a6.43,6.43,0,0,0,.828,4.358A52.66,52.66,0,0,0,94.994,194q1.726,2.175,3.6,4.225c1.117,1.225,2.233,2.7,3.762,3.416,3.42,1.6,5.736-1.86,7.673-4.128,2.168-2.538,4.194-5.16,6.15-7.863a5.9,5.9,0,0,0,1.476-3.714c0-1.39-.228-2.8-.351-4.184q-.373-4.215-.744-8.429-.837-9.475-1.7-18.948-1.106-11.951-2.331-23.888-.63-6.077-1.309-12.148-.182-1.627-.369-3.256a8.161,8.161,0,0,1-.1-2.638c.333-1.615,1-3.174,1.41-4.772.646-2.494-3.211-3.558-3.858-1.064-.3,1.173-.681,2.324-1.043,3.479a12.432,12.432,0,0,0-.589,2.7,14.336,14.336,0,0,0,.235,2.759q.588,5.13,1.134,10.266,1.109,10.389,2.092,20.791c1.139,11.927,2.178,23.863,3.237,35.8.1,1.11.554,2.738.289,3.835a3.469,3.469,0,0,1-.667,1.046c-.552.752-1.078,1.521-1.633,2.27-1.8,2.422-3.769,4.72-5.758,6.986-.351.4-.874,1.282-1.385,1.469-.3.109.273.189-.16.02a2.349,2.349,0,0,1-.738-.625q-1.845-1.9-3.568-3.909c-1.048-1.222-2.064-2.473-3.027-3.763-.536-.717-1.116-1.431-1.591-2.189a2.775,2.775,0,0,1-.315-2c1.028-12.016,2.309-24.017,3.448-36.023q1.033-10.894,2.052-21.789.492-5.266.979-10.535a20.4,20.4,0,0,0,.213-5.489c-.355-1.925-1.016-3.781-1.422-5.694-.533-2.517-4.39-1.452-3.857,1.063Z"/><path class="d" d="M106.836,100.822l-5.778.007a2,2,0,0,0,0,4l5.778-.007a2,2,0,1,0,0-4Z"/><path class="d" d="M115.464,113.065a57.182,57.182,0,0,0,8.048-10.911c.579-.954,1.153-1.911,1.734-2.864a2.857,2.857,0,0,0,.607-1.88,5.063,5.063,0,0,0-.793-1.761,23.435,23.435,0,0,0-4.218-5.415,2.035,2.035,0,0,0-2.828,0,41.561,41.561,0,0,1-6.867,5.566c-1.208.783-2.453,1.511-3.733,2.172-1.239.639-2.942,1.091-3.36,2.611a3.552,3.552,0,0,0,.916,3.078c.835,1.108,1.716,2.183,2.595,3.256,1.683,2.055,3.394,4.087,5.071,6.148a2.013,2.013,0,0,0,2.828,0,2.047,2.047,0,0,0,0-2.829c-1.4-1.719-2.824-3.418-4.234-5.129-.794-.964-1.587-1.928-2.364-2.905-.215-.27-.432-.539-.636-.818-.089-.122-.176-.28-.277-.393-.183-.206.059-.258.029.123l-.273,1.01q-.524.431-.072.172l.3-.137c.3-.141.6-.283.9-.43q.91-.451,1.8-.948,1.832-1.022,3.561-2.213a46.491,46.491,0,0,0,6.648-5.5h-2.828a20.891,20.891,0,0,1,4.148,5.622V96.666c-2.894,4.721-5.589,9.613-9.526,13.57C110.818,112.063,113.645,114.893,115.464,113.065Z"/><path class="d" d="M95.234,110.236c-3.938-3.957-6.632-8.849-9.527-13.57v2.019a20.891,20.891,0,0,1,4.148-5.622H87.027a46.791,46.791,0,0,0,6.648,5.5q1.728,1.188,3.562,2.213.815.454,1.65.873.445.224.9.435.222.106.447.207.453.258-.072-.172l-.273-1.01c-.026-.338.228-.346.029-.123a3.851,3.851,0,0,0-.222.318c-.22.306-.456.6-.69.893-.778.977-1.571,1.941-2.365,2.905-1.41,1.711-2.834,3.41-4.234,5.129a2.06,2.06,0,0,0,0,2.829,2.016,2.016,0,0,0,2.829,0c1.642-2.019,3.318-4.01,4.968-6.023.889-1.085,1.778-2.173,2.628-3.29a3.637,3.637,0,0,0,.986-3.169c-.407-1.477-2-1.918-3.21-2.535-1.28-.654-2.527-1.375-3.736-2.152a41.708,41.708,0,0,1-7.015-5.662,2.037,2.037,0,0,0-2.828,0A23.373,23.373,0,0,0,82.893,95.5a7.487,7.487,0,0,0-.841,1.641,2.643,2.643,0,0,0,.572,2.146c.581.953,1.154,1.91,1.733,2.864a57.224,57.224,0,0,0,8.048,10.911C94.223,114.892,97.052,112.064,95.234,110.236Z"/><path class="d" d="M104.222,259.225c-.327,8-.422,16.016-.565,24.023q-.309,17.38-.57,34.763c-.162,9.943-.315,19.888-.566,29.829C102.342,354.9,102,361.945,101.7,369q-.756,17.556-1.48,35.114-.064,1.645-.129,3.292l2-2c-8.7.206-17.426.17-26.126.021-1.472-.025-2.963-.011-4.43-.158l2,2c-.841-15.627-1.675-31.255-2.324-46.892-.562-13.535-1.058-27.073-1.595-40.609-.521-13.1-1.043-26.2-1.469-39.309-.3-9.272-.444-18.548-.756-27.82-.388-11.5-.828-23-1.415-34.5q-.078-1.517-.163-3.035c-.144-2.559-4.145-2.576-4,0,.625,11.085,1.034,22.185,1.43,33.28.332,9.307.494,18.616.774,27.924.386,12.786.892,25.568,1.4,38.349q.78,19.761,1.547,39.522c.61,15.571,1.4,31.133,2.231,46.693q.171,3.2.343,6.393a2.064,2.064,0,0,0,2,2c3.365.338,6.824.2,10.2.218q7.431.043,14.861-.013c1.832-.013,3.664-.025,5.5-.068a2.041,2.041,0,0,0,2-2c.439-11.359.935-22.716,1.423-34.073.327-7.64.724-15.28.942-22.924.268-9.4.41-18.8.566-28.2q.291-17.43.568-34.86c.15-8.733.272-17.471.565-26.2q.033-.96.071-1.919c.105-2.574-3.895-2.569-4,0Z"/><path class="d" d="M62.476,216.364q33.033.073,66.066.175,9.633.026,19.267.047c2.574.006,2.578-3.994,0-4q-33.033-.075-66.066-.175-9.635-.025-19.267-.047c-2.574-.006-2.578,3.994,0,4Z"/><path class="d" d="M56.09,112.373c1.664,13.061,2.312,26.275,2.979,39.416q1.1,21.759,1.577,43.548c.128,6.337-.453,12.688-.17,19.027.114,2.564,4.114,2.578,4,0-.25-5.6.311-11.205.212-16.8-.116-6.588-.3-13.175-.525-19.759-.512-15.133-1.188-30.267-2.242-45.372-.468-6.7-.982-13.4-1.831-20.062a2.065,2.065,0,0,0-2-2,2.012,2.012,0,0,0-2,2Z"/><path class="d" d="M149.142,111.884c-1.027,11.041-1.273,22.191-1.739,33.265-.667,15.838-1.254,31.682-1.662,47.529-.113,4.4-.231,8.809-.162,13.215.045,2.893.3,5.8.23,8.693-.065,2.575,3.935,2.574,4,0,.062-2.463-.148-4.936-.2-7.4-.093-4.027-.021-8.052.076-12.078q.271-11.26.674-22.517c.527-15.374,1.13-30.748,1.9-46.112.244-4.865.437-9.747.888-14.6a2.014,2.014,0,0,0-2-2,2.043,2.043,0,0,0-2,2Z"/><path class="a" d="M24.446,102.051c-1.273-5.037-4.849-17.607-6.165-19.286-.944-1.2-2.062-2.133-4.136-1.249-1.777.759-1.489,2.811-1.153,4.508.37,1.867,2.572,10.681,3.858,15.26a3.524,3.524,0,0,0-4-.905,2.687,2.687,0,0,0-1.8,2.714s.124.681.3,1.66a3.416,3.416,0,0,0-3.3.018c-1.218.652-2.445,2.4-1.845,3.657l.8,1.689-.251-.207c-1.547-1.272-4.234-.489-4.67,1.207a5.6,5.6,0,0,0,.955,4.029c.086.141.178.293.276.452l.141.436a33.48,33.48,0,0,0,5.761,11c1.33,1.536,2.866,3.06,4.072,4.708s1.507,3.478,2.095,5.449l.262.872c3.117-1.152,11.888-4.429,16.555-6.652l-.166-.467a20.786,20.786,0,0,1-.665-6.667,45.481,45.481,0,0,1,2.025-5.938,11,11,0,0,0,.847-4.967,14.657,14.657,0,0,0-2.148-6.7,3.893,3.893,0,0,0-1.047-.989.952.952,0,0,0-.147-.088c-1.711-1.048-3.959-1.053-5.9-.97l-.162-.825C24.791,103.455,24.648,102.847,24.446,102.051Z"/><path class="d" d="M26.788,103.271c-.482-2.407-1.2-4.783-1.866-7.144-.939-3.337-1.912-6.671-3.044-9.949-.9-2.6-1.87-5.86-4.827-6.8a4.9,4.9,0,0,0-6.132,3.125,10.918,10.918,0,0,0,.385,5.143c1.037,4.521,2.2,9.022,3.428,13.5.68,2.48,4.54,1.427,3.857-1.063-1.019-3.715-1.97-7.451-2.88-11.194-.3-1.217-.611-2.436-.841-3.668-.089-.479-.347-1.545-.019-1.89a1.74,1.74,0,0,1,1.114-.08,2.4,2.4,0,0,1,.649.618c.169.188-.08-.177.111.157.084.149.162.3.238.451.064.131.329.744.12.245.457,1.089.84,2.21,1.215,3.329,1,2.98,1.883,6,2.736,9.023.677,2.4,1.409,4.813,1.9,7.26.5,2.522,4.362,1.455,3.857-1.063Z"/><path class="d" d="M1.545,116.565a36,36,0,0,0,5.111,10.424c1.35,1.805,2.969,3.372,4.4,5.106,1.394,1.687,1.815,3.577,2.415,5.632.719,2.466,4.581,1.417,3.857-1.063-.595-2.039-1.044-4.166-2.3-5.928-1.371-1.928-3.094-3.557-4.6-5.37A29.863,29.863,0,0,1,5.4,115.5c-.795-2.436-4.659-1.394-3.857,1.063Z"/><path class="d" d="M27.126,114.916c-.285-1.8-.674-4.126-2.119-5.374a5.164,5.164,0,0,0-2.592-1.108c-.38-.065-.766-.1-1.146-.164a2.9,2.9,0,0,0-.408-.076c-.479-.014.011-.125.056.094a1.644,1.644,0,0,1-.115-.722c.034-.2.421-.679.056-.41.606-.446,2.048-.391,2.752-.443.872-.065,1.746-.116,2.62-.111q.771.006,1.538.078c.483.046.1.007,0-.008.26.04.518.088.774.147,1.677.387,2.4,1.432,2.938,3.022a13.033,13.033,0,0,1,.8,4.474c-.077,2.516-1.39,4.832-2.168,7.188-.19.576-.394,1.156-.544,1.745a6.791,6.791,0,0,0-.242,1.531,23.454,23.454,0,0,0,.8,6.7c.538,2.516,4.4,1.451,3.857-1.063-.222-1.036-.445-2.079-.571-3.131a15.018,15.018,0,0,1-.112-1.6c0-.244,0-.49.016-.734.014-.228.185-1.031.046-.468-.12.485.064-.169.091-.257.085-.266.159-.535.243-.8.229-.731.474-1.459.728-2.183.215-.613.424-1.234.679-1.832-.18.422.14-.264.16-.309a9.671,9.671,0,0,0,.559-1.537,13.874,13.874,0,0,0,.243-5.689,14.626,14.626,0,0,0-2.115-6.049,7.322,7.322,0,0,0-5.113-3.011,23.975,23.975,0,0,0-6.259-.015c-2.449.257-4.487.742-5.453,3.235-.85,2.2.018,5.189,2.432,5.948.753.236,2.124.044,2.749.519.328.25.332.831.431,1.208a22.981,22.981,0,0,1,.533,2.269,2.014,2.014,0,0,0,2.46,1.4,2.048,2.048,0,0,0,1.4-2.46Z"/><path class="d" d="M8.843,116.335c.089.312.007-.512-.007-.092-.015.442.12-.369.011-.056-.023.066-.045.147-.063.216-.057.227-.118-.008.072-.153-.093.071-.164.319-.228.421a1.414,1.414,0,0,0-.135.2s.273-.308.129-.167c-.1.1-.18.207-.279.3a1.116,1.116,0,0,0-.167.152c.017-.04.409-.264.146-.119-.043.024-.09.051-.13.079-.288.2.08-.087.175-.065-.039-.009-.578.105-.2.07.36-.033-.154,0-.238,0-.2,0-.635-.124-.127.024-.17-.05-.353-.064-.525-.112-.095-.026-.537-.194-.264-.074.294.129-.157-.089-.226-.13.013.007-.2-.141-.21-.138.032-.013.372.329.125.087-.121-.119-.244-.233-.358-.358s-.206-.242-.309-.361c-.179-.206.213.3.053.07-.041-.058-.085-.115-.127-.173-.222-.309-.431-.626-.635-.948A18.391,18.391,0,0,1,4.3,113.222c-.138-.283.007.06.026.061a1.272,1.272,0,0,1-.078-.212c-.058-.165-.11-.332-.154-.5-.024-.095-.041-.194-.067-.289-.063-.233.083-.122,0,.1a2.039,2.039,0,0,0-.023-.571c-.013-.2.117-.179-.032.113a.993.993,0,0,0,.041-.2,1.487,1.487,0,0,0,.059-.209c.015-.164-.092.236-.109.251a.98.98,0,0,0,.094-.171c.074-.151.212-.135-.142.164.1-.082.186-.2.277-.287.142-.142.149.019-.165.124a1.049,1.049,0,0,0,.174-.112c.059-.036.123-.066.182-.1.283-.169-.363.1-.138.053.138-.031.271-.092.411-.125.07-.017.143-.024.212-.044.2-.057-.525.022-.153.028.145,0,.291,0,.436,0,.209,0,.111.121-.206-.031a1.25,1.25,0,0,0,.214.045c.071.018.139.043.21.061.32.08-.3-.19-.123-.056.124.094.6.4.111.017a2.176,2.176,0,0,0,1.414.586A2,2,0,0,0,8.186,108.5,5.25,5.25,0,0,0,5.1,107.285a5.379,5.379,0,0,0-2.825.686,4.448,4.448,0,0,0-2,2.336,5.645,5.645,0,0,0-.034,3.326,10.792,10.792,0,0,0,1.32,2.889,19.906,19.906,0,0,0,1.784,2.532,6,6,0,0,0,5.866,1.92,5,5,0,0,0,3.5-5.7,2,2,0,1,0-3.858,1.064Z"/><path class="d" d="M13.258,103.758c-1.946-2.138-5.394-1.659-7.365.145a5.386,5.386,0,0,0-1.831,3.756,7.691,7.691,0,0,0,1.45,3.686c.98,1.666,2.15,3.267,3.266,4.848a11.316,11.316,0,0,0,1.746,2.122,5.532,5.532,0,0,0,3.747,1.215,5.063,5.063,0,0,0,4.5-6.621,2,2,0,1,0-3.857,1.063c.038.14.077.278.1.421-.007-.043-.021-.263-.011-.035,0,.095,0,.189,0,.284,0,.128-.087.334.011,0-.047.162-.08.324-.139.482.144-.389-.087.076-.166.21.188-.319-.011-.078-.117.084s.108-.073.144-.1c-.054.035-.106.073-.16.109s-.334.156-.1.069-.03,0-.067.006-.31.069-.067.025c.276-.049-.2,0-.255,0-.149,0-.521-.064-.18.007-.2-.041-.4-.117-.6-.149s.037.028.084.05a2.8,2.8,0,0,0-.283-.147c-.062-.019-.2-.174.066.061.3.263.023.01-.017-.032-.183-.193-.349-.408-.535-.6-.149-.152.087.117.093.125-.06-.079-.119-.158-.178-.238-.108-.145-.213-.292-.317-.439-.779-1.105-1.542-2.226-2.308-3.339a26.2,26.2,0,0,1-1.512-2.5c-.106-.2-.2-.4-.309-.6-.185-.343.021.2-.062-.142.026.106-.021.4.022.061,0,.028-.092.349-.021.127.025-.078.043-.164.063-.243.087-.334-.085.075.04-.083.063-.08.356-.536.142-.27a5.114,5.114,0,0,1,.5-.519c.092-.085.283-.145,0,0,.1-.049.189-.114.281-.169.031-.019.281-.128.062-.038-.252.1.183-.051.235-.065.08-.021.167-.032.246-.056.251-.076-.428,0,.053,0,.118,0,.6.058.394,0-.3-.077.122.032.13.05.108.036.1.03-.014-.019s-.122-.057-.021-.007c.068.036.135.086.2.117-.3-.134-.077-.057.067.1a2.015,2.015,0,0,0,2.829,0,2.045,2.045,0,0,0,0-2.828Z"/><path class="d" d="M19.609,110.662c.008.143.01.282.011.425,0,.017-.029.345,0,.128s-.024.088-.031.108c-.039.113-.062.231-.106.343.172-.44-.209.274-.049.052s-.435.382-.2.2c.2-.148-.263.134-.318.169.268-.17.113-.075-.086,0-.3.122,0,.016.1.009-.079.006-.156.012-.235.013-.321,0,.315.036,0,0-.267-.031.228.119-.015,0-.045-.023-.361-.226-.177-.095.167.119-.068-.061-.084-.076-.153-.154-.3-.306-.449-.469s.007.022.03.052c-.07-.091-.136-.186-.2-.281-.115-.168-.223-.342-.33-.517-.61-1-1.238-1.992-1.872-2.98-.589-.918-1.179-1.839-1.7-2.8-.113-.21-.223-.421-.328-.635-.058-.118-.113-.238-.168-.357-.006-.012-.128-.305-.05-.112s-.034-.094-.038-.108c-.038-.115-.082-.227-.119-.342-.071-.221-.124-.446-.181-.67-.031-.122.02-.27-.01-.028l.023.138c.008-.176,0-.178-.017-.005.045.008-.074.227.012-.012.043-.122.14-.273-.046.053.069-.121.246-.412.044-.15.074-.1.161-.174.243-.262s.21-.16.044-.048a3.622,3.622,0,0,1,.356-.211c-.033.016-.221.076-.005,0,.125-.046.652-.111.338-.1.132-.006.262,0,.394,0-.039,0-.278-.053-.041-.005.1.02.193.048.29.07.519.116-.09-.075.17.058.09.045.175.1.263.146.471.27-.065-.09.153.119.153.147.292.308.431.469.154.179.3.363.453.547l.178.224c.388.487-.11-.149.11.142.579.764,1.146,1.541,1.653,2.355a2,2,0,0,0,3.454-2.019,35.927,35.927,0,0,0-2.147-3,7.818,7.818,0,0,0-2.709-2.526c-2.835-1.329-6.68-.1-7.5,3.143a6.2,6.2,0,0,0,.72,3.975,27.181,27.181,0,0,0,2.016,3.564c.769,1.206,1.516,2.425,2.283,3.631a6.69,6.69,0,0,0,3.212,2.892,4.69,4.69,0,0,0,4.479-.981,5.139,5.139,0,0,0,1.744-4.246,2.043,2.043,0,0,0-2-2,2.02,2.02,0,0,0-2,2Z"/><path class="d" d="M83.133,97.305c-7.191,3.324-14.656,6.05-21.966,9.095-3.964,1.651-8.476,3.158-10.887,6.964a36.563,36.563,0,0,0-2.955,7.11c-.9,2.474-1.734,4.97-2.532,7.478-1.743,5.476-3.425,10.961-5.474,16.334a2.015,2.015,0,0,0,1.4,2.46,2.043,2.043,0,0,0,2.46-1.4c3.559-9.332,5.793-19.183,9.728-28.37,1.648-3.845,5.591-5.164,9.191-6.665,3.738-1.559,7.5-3.058,11.255-4.579,3.955-1.6,7.928-3.185,11.8-4.976a2.017,2.017,0,0,0,.717-2.737,2.045,2.045,0,0,0-2.736-.717Z"/><path class="d" d="M46.359,152.272c-3.48-7.715-6.667-15.549-9.854-23.388a2.038,2.038,0,0,0-2.938-1.195c-6.3,3.308-13.032,6.641-20.018,8.205a2.018,2.018,0,0,0-1.4,2.46c2.018,6.454,3.951,12.938,6.249,19.3,2.02,5.592,4.147,11.511,7.36,16.551,2.9,4.553,7.264,7.8,12.857,7.688,5.746-.119,10.531-2.994,14.441-6.994A126.7,126.7,0,0,0,63,163.3a2.013,2.013,0,0,0-.717-2.737,2.051,2.051,0,0,0-2.737.718l-.459.6c-.067.087-.638.81-.3.392q-.987,1.231-2,2.446c-1.566,1.877-3.168,3.726-4.825,5.524a34.615,34.615,0,0,1-4.859,4.7,15.716,15.716,0,0,1-7.091,2.851c-4.715.609-8.328-1.75-10.794-5.613-2.872-4.5-4.8-9.73-6.636-14.715-2.44-6.644-4.459-13.429-6.57-20.181l-1.4,2.46a61.969,61.969,0,0,0,10.541-3.666q5.316-2.253,10.433-4.943l-2.938-1.195c3.317,8.159,6.635,16.314,10.257,24.344a2.015,2.015,0,0,0,2.737.717,2.048,2.048,0,0,0,.717-2.736Z"/><path class="d" d="M123.277,100.627c6.985,2.819,14.03,5.485,20.98,8.389,1.517.634,3.029,1.28,4.522,1.967,1.942.892,4.263,1.688,5.748,3.276,1.747,1.868,2.524,4.655,3.381,7,.906,2.482,1.738,4.99,2.522,7.514,1.766,5.689,3.431,11.391,5.555,16.963a2.057,2.057,0,0,0,2.46,1.4,2.015,2.015,0,0,0,1.4-2.46c-1.943-5.1-3.52-10.3-5.109-15.512-.807-2.647-1.652-5.283-2.581-7.891a39.126,39.126,0,0,0-3.394-8.011c-2.423-3.794-6.975-5.349-10.945-7.049-4.048-1.734-8.136-3.372-12.229-5-3.746-1.486-7.506-2.938-11.243-4.446a2.013,2.013,0,0,0-2.461,1.4,2.05,2.05,0,0,0,1.4,2.46Z"/><path class="a" d="M102.148,149.265a20.632,20.632,0,0,0-2.114,2.327,40.022,40.022,0,0,0,3.627,3.351l.355.264A16.876,16.876,0,0,1,112,149.251a37.213,37.213,0,0,1,15.02-2.7c5.076.167,10.679,1.761,14.463,5.372,3.092-3.547,8.866-6.3,13.323-7.413a40.208,40.208,0,0,1,13.479-.718,21.8,21.8,0,0,1,7.779,2.22l.1-.1c.789-.749,2.366-2.326,3.706-3.745-4.849-3.667-7.568-4.215-13.286-4.771-4.352-.423-9.3-.566-13.551.5s-9.71,2.837-12.733,6.2c-3.4-2.4-8.166-3.759-13.282-3.928a37.213,37.213,0,0,0-15.02,2.7,26.863,26.863,0,0,0-6.169,3.287A42.836,42.836,0,0,0,102.148,149.265Z"/><path class="g" d="M163.732,164.414c3.285-2.926,13.667-12.676,16.453-15.463-2.286-2.366-6.655-4.666-11.9-5.155a40.208,40.208,0,0,0-13.479.718c-4.457,1.113-10.231,3.866-13.323,7.413-3.784-3.611-9.387-5.2-14.463-5.372a37.213,37.213,0,0,0-15.02,2.7,16.421,16.421,0,0,0-9.165,7.9c2.974,2.6,14,11.075,17.094,13.53Z"/><path class="a" d="M149.5,156.414c-.2-.162-.4-.322-.608-.48-2.609-2.016-4.5-2.331-7.183-.833l-1.439,1.25c-1.1-1.163-2.027-2.128-2.424-2.472a4.479,4.479,0,0,0-4.3-.966c-1.695.631-2.405,1.557-2.405,2.976,0,0-.068.514-.16,1.207-.9-.951-1.709-1.77-2.326-2.324-.523-.468-3.071-1.724-4.766-.45a2.752,2.752,0,0,0-.86,3.948,5.069,5.069,0,0,1,.248.473l-.379-.2a3.857,3.857,0,0,0-5.457,1.967,5.529,5.529,0,0,0,.436,3.624c1.1,2.123,5.9,7.449,8.487,10.186,5.935,4.2,15.405,1.274,22.99-.489a10.021,10.021,0,0,0,3.006-1.294c2.837-1.969,4.3-4.389,6.616-6.95a18.028,18.028,0,0,0,2.6-3.154,6.679,6.679,0,0,0,.956-4.679,3.524,3.524,0,0,0-1.326-2.1c-1.128-.745-2.638-.39-3.889.121a19.334,19.334,0,0,0-5.154,3.118A24.063,24.063,0,0,0,149.5,156.414Z"/><path class="d" d="M151.35,170.811c-1.586,1.071-3.549,1.332-5.374,1.773-2.174.525-4.353,1.041-6.559,1.419-3.815.652-8.134.982-11.581-1.095-2.21-1.333-4.223,2.125-2.019,3.454,4.186,2.523,9.2,2.347,13.862,1.629,2.414-.372,4.794-.932,7.167-1.5,2.22-.535,4.592-.92,6.523-2.223,2.122-1.432.122-4.9-2.019-3.454Z"/><path class="d" d="M155,159.225a22.871,22.871,0,0,0-6.383-5.9,7.648,7.648,0,0,0-3.837-1.161,8.544,8.544,0,0,0-4.085,1.209,2.019,2.019,0,0,0-.718,2.736,2.042,2.042,0,0,0,2.737.718c.119-.066.239-.131.361-.193.04-.021.5-.24.285-.144-.18.081.151-.057.185-.069.11-.04.221-.076.332-.11a5.835,5.835,0,0,1,.727-.165c-.439.072.084.015.253.019.062,0,.507.024.2,0-.275-.021.063.016.121.028a5.216,5.216,0,0,1,.621.176c.168.059.321.144.073.022.107.053.214.1.32.158.253.133.5.28.738.435s.459.311.684.475c.287.211-.168-.133.095.071.131.1.26.206.39.31.438.355.867.721,1.283,1.1s.817.773,1.2,1.184q.271.289.53.59c.108.126.213.254.318.382.231.281-.267-.363.115.145a2.051,2.051,0,0,0,2.736.717,2.021,2.021,0,0,0,.718-2.736Z"/><path class="d" d="M147.306,160.909c-1.816-1.709-3.443-3.647-5.148-5.464-.846-.9-1.685-1.816-2.574-2.676a6.822,6.822,0,0,0-5.883-1.956,5.3,5.3,0,0,0-4.561,5.076,2,2,0,0,0,4,0c0-.119.006-.239.017-.359q-.054.372.015.033.109-.324-.036.025a2.517,2.517,0,0,1,.156-.277c-.211.374.123-.114.245-.21-.313.247.33-.163.4-.2a2.139,2.139,0,0,1,.521-.176c.24-.049.267-.055.081-.016a3.731,3.731,0,0,1,.423,0l.114.008c.145.028.289.064.431.106a.884.884,0,0,1,.362.136,11.655,11.655,0,0,1,2.689,2.5c1.969,2.08,3.829,4.316,5.916,6.279a2,2,0,0,0,2.828-2.828Z"/><path class="d" d="M121.341,169.267c-5.688-4.508-11.616-8.765-17.094-13.53l.313,2.424c3.235-6.041,10.06-8.378,16.5-9.3,6.472-.926,14.011-.16,19,4.48a2.026,2.026,0,0,0,2.829,0c4.2-4.7,11.055-7.188,17.211-7.671,6.3-.494,13.93-.075,18.665,4.7v-2.829C173.452,152.844,167.924,158,162.318,163c-1.925,1.717.912,4.538,2.828,2.828,5.606-5,11.135-10.156,16.454-15.463a2.032,2.032,0,0,0,0-2.829c-5.5-5.537-14.1-6.446-21.494-5.866-7.178.563-15.122,3.348-20.04,8.843H142.9c-5.989-5.569-14.622-6.663-22.433-5.575-7.626,1.063-15.546,4.089-19.356,11.2a2.037,2.037,0,0,0,.313,2.423c5.477,4.765,11.406,9.023,17.093,13.53a2.063,2.063,0,0,0,2.829,0,2.013,2.013,0,0,0,0-2.828Z"/><path class="d" d="M104.67,153.216c.33.253-.428-.38-.567-.5q-.55-.484-1.089-.985a15.912,15.912,0,0,1-1.566-1.55v2.828c4.438-5.671,11.053-8.906,18.014-10.256,6.576-1.276,14.167-.823,19.828,3.073a2.012,2.012,0,0,0,2.424-.313c2.228-2.4,5.337-3.729,8.4-4.713a33.764,33.764,0,0,1,10.327-1.715,51.99,51.99,0,0,1,10.307.872,19.935,19.935,0,0,1,8.111,3.942l-.405-3.141c-1.209,1.274-2.437,2.532-3.706,3.746-1.864,1.783.967,4.609,2.828,2.828,1.269-1.214,2.5-2.471,3.706-3.745a2.036,2.036,0,0,0-.405-3.141,22.515,22.515,0,0,0-9.066-4.346A56.712,56.712,0,0,0,160,135.086a37.533,37.533,0,0,0-11.657,2.09c-3.457,1.18-6.931,2.788-9.454,5.505l2.424-.312c-6.424-4.42-15-4.913-22.453-3.562-7.7,1.394-15.34,5.112-20.236,11.371a2.083,2.083,0,0,0,0,2.828,24.193,24.193,0,0,0,4.032,3.664,2.011,2.011,0,0,0,2.736-.717,2.051,2.051,0,0,0-.718-2.737Z"/><path class="d" d="M123.906,156.817a5.915,5.915,0,0,0-6.391.444,5.334,5.334,0,0,0-2.2,4.664,8.76,8.76,0,0,0,1.98,4.952c1.125,1.509,2.337,2.953,3.575,4.371q1.981,2.271,4.054,4.46c1.771,1.875,4.6-.957,2.828-2.828q-1.912-2.026-3.755-4.118c-.687-.783-1.367-1.572-2.03-2.375-.306-.37-.606-.744-.905-1.119a1.543,1.543,0,0,1-.152-.195c-.123-.164-.246-.328-.366-.493a9.294,9.294,0,0,1-.955-1.462,3.232,3.232,0,0,1-.28-1.424c0-.076.038-.69-.012-.306.009-.067.162-.674.041-.306-.116.352.1-.13.13-.2.16-.346-.251.222.052-.068a6.547,6.547,0,0,1,.483-.459c-.278.217.1-.029.186-.091.321-.226-.15,0,.211-.105a3.766,3.766,0,0,1,.378-.1l.073,0a1.723,1.723,0,0,1,1.036.221,2.053,2.053,0,0,0,2.737-.717,2.019,2.019,0,0,0-.718-2.737Z"/><path class="d" d="M139.234,163.188c-1.708-1.85-3.372-3.74-5.071-5.6-.839-.918-1.683-1.832-2.55-2.723a13.024,13.024,0,0,0-2.224-2.02c-2.681-1.7-6.421-1.4-8.172,1.458-1.994,3.255.851,6.17,2.8,8.56a93.292,93.292,0,0,0,6.653,7.44c1.835,1.809,4.665-1.018,2.829-2.829s-3.59-3.739-5.25-5.734c-.845-1.015-1.676-2.042-2.514-3.064a9.224,9.224,0,0,1-.984-1.418c-.052-.092-.11-.179-.16-.272-.159-.295.064.227-.029-.078-.016-.052-.107-.445-.055-.2.045.208.053-.3-.01.048a1.862,1.862,0,0,1,.1-.369c-.122.288.036-.028.065-.061-.164.183.079-.1.091-.108a3.4,3.4,0,0,1,.345-.324c.068-.053.08-.047.252-.092.063-.016.38-.05.067-.024a4.22,4.22,0,0,1,.5,0c.333.012-.262-.061.06.005.095.02.19.04.285.063a6.143,6.143,0,0,1,.7.227c-.391-.15.123.07.231.132.069.039.141.093.212.128.306.15-.3-.3-.133-.1.542.667,1.284,1.24,1.882,1.865.757.791,1.5,1.6,2.239,2.4,1.673,1.833,3.314,3.7,5,5.519a2,2,0,0,0,2.829-2.829Z"/><path class="d" d="M154.405,159.661a20.432,20.432,0,0,1,3.1-1.8c.642-.3,1.769-.862,2.462-.611.435.158.651.89.7,1.408a5.434,5.434,0,0,1-.926,2.97,12.249,12.249,0,0,1-1.775,2.112c-.734.784-1.425,1.605-2.106,2.435a24.35,24.35,0,0,1-4.509,4.639,2.056,2.056,0,0,0-.718,2.737,2.017,2.017,0,0,0,2.737.717,33.337,33.337,0,0,0,6.046-6.143c.82-.973,1.723-1.87,2.55-2.836a11.884,11.884,0,0,0,2.286-4.026c.975-2.9.09-6.95-3.23-7.86-2.944-.807-6.319,1.182-8.635,2.807a2.053,2.053,0,0,0-.717,2.736,2.017,2.017,0,0,0,2.736.718Z"/><path class="d" d="M99.226,74.679a12.475,12.475,0,0,0,6.01,1.4,9.885,9.885,0,0,0,6.166-1.861,2,2,0,0,0,0-2.828,2.062,2.062,0,0,0-2.829,0c.688-.536-.05,0-.269.119-.169.089-.63.23-.01.024-.165.055-.325.125-.491.179-.209.067-.421.124-.635.174a3.372,3.372,0,0,0-.738.139c.181-.1.32-.038,0-.006q-.2.02-.405.033c-.325.021-.651.029-.976.027q-.438,0-.875-.031c-.133-.009-.267-.02-.4-.034-.076-.007-.152-.015-.228-.025q-.234-.028.169.023a1.927,1.927,0,0,1-.658-.123q-.315-.07-.626-.162c-.18-.054-.355-.119-.532-.179-.457-.157.409.2,0,0-.22-.1-.437-.212-.652-.326a2,2,0,0,0-2.019,3.454Z"/><path class="d" d="M103.99,60.818a27.057,27.057,0,0,1,.635,2.908l-.071-.531a1.793,1.793,0,0,1,.011.4l.071-.532a.937.937,0,0,1-.044.181l.2-.478a.727.727,0,0,1-.064.116l.313-.4a.642.642,0,0,1-.1.093l.405-.313a1.76,1.76,0,0,1-.231.122l.478-.2a1.707,1.707,0,0,1-.388.113l.531-.071a1.583,1.583,0,0,1-.364,0l.532.071c-.138-.019-.273-.052-.41-.071a1.515,1.515,0,0,0-.8-.035,1.486,1.486,0,0,0-.743.237,2,2,0,0,0-.718,2.736,1.912,1.912,0,0,0,1.2.919c.357.049.7.138,1.069.154a3.493,3.493,0,0,0,1.634-.4,2.469,2.469,0,0,0,1.336-1.614,3.85,3.85,0,0,0-.014-1.682c-.159-.937-.375-1.865-.616-2.784a2.061,2.061,0,0,0-.919-1.2,2,2,0,0,0-2.737.717,2.1,2.1,0,0,0-.2,1.541Z"/><path class="d" d="M89.1,52.447c-.485,1.578-.169,5.209,2.821,5.518,3.952-.024,4.162-4.413,2.832-6.477C93.667,49.8,90.464,49.1,89.1,52.447Z"/><path class="d" d="M120.749,52.447c.486,1.578.169,5.209-2.82,5.518-3.952-.024-4.163-4.413-2.833-6.477C116.186,49.8,119.388,49.1,120.749,52.447Z"/></svg>